<?xml version="1.0" encoding="UTF-8"?>
<svg id="Camada_1" xmlns="http://www.w3.org/2000/svg" xmlns:i="http://ns.adobe.com/AdobeIllustrator/10.0/" version="1.1" viewBox="0 0 1350 516.1" xmlns:c2pa="http://c2pa.org/manifest"><metadata><c2pa:manifest>AAAWgmp1bWIAAAAeanVtZGMycGEAEQAQgAAAqgA4m3EDYzJwYQAAABZcanVtYgAAAEdqdW1kYzJtYQARABCAAACqADibcQN1cm46YzJwYTo3N2YxNTY2ZC1jM2MzLTRlZWItYjA2ZS02ZDY2ZTllNjgxM2UAAAADl2p1bWIAAAApanVtZGMyYXMAEQAQgAAAqgA4m3EDYzJwYS5hc3NlcnRpb25zAAAAALxqdW1iAAAARGp1bWRjYm9yABEAEIAAAKoAOJtxE2MycGEuaW5ncmVkaWVudC52MwAAAAAYYzJzaAWCqDghKTdIYvH//drG8rIAAABwY2JvcqNpZGM6Zm9ybWF0bWltYWdlL3N2Zyt4bWxqaW5zdGFuY2VJRHgseG1wOmlpZDphOGI0OTQ2ZS02YTUxLTQ5YTEtOTM2Ni1iNjQzNzliZGU3M2NscmVsYXRpb25zaGlwaHBhcmVudE9mAAAB4mp1bWIAAABBanVtZGNib3IAEQAQgAAAqgA4m3ETYzJwYS5hY3Rpb25zLnYyAAAAABhjMnNoNbxL1uCd9/3nz+pzhHfwGAAAAZljYm9yomdhY3Rpb25zgqJmYWN0aW9ua2MycGEub3BlbmVkanBhcmFtZXRlcnOha2luZ3JlZGllbnRzgaJjdXJseC1zZWxmI2p1bWJmPWMycGEuYXNzZXJ0aW9ucy9jMnBhLmluZ3JlZGllbnQudjNkaGFzaFggKF4/63723WBuT7D3Qux7rlWrJCOHoFyDhMAMXvhx4SKkZmFjdGlvbngdY29tLmFudGhyb3BpYy5jbGF1ZGUucHJvdmlkZWRqcGFyYW1ldGVyc6F4H2NvbS5hbnRocm9waWMub3JpZ2luLWNvbmZpZGVuY2VndW5rbm93bmtkZXNjcmlwdGlvbnhmQ2xhdWRlIHByb3ZpZGVkIHRoaXMgZmlsZSBhdCB0aGUgcmVxdWVzdCBvZiBhIHVzZXIgYW5kIG1heSBoYXZlIGNyZWF0ZWQgb3IgbW9kaWZpZWQgdGhlIGZpbGUgY29udGVudHMubXNvZnR3YXJlQWdlbnShZG5hbWVmQ2xhdWRlcmFsbEFjdGlvbnNJbmNsdWRlZPUAAADIanVtYgAAAEBqdW1kY2JvcgARABCAAACqADibcRNjMnBhLmhhc2guZGF0YQAAAAAYYzJzaNAePy+gtEtsv5HYXnSTuV8AAACAY2JvcqVjYWxnZnNoYTI1NmNwYWRNAAAAAAAAAAAAAAAAAGRoYXNoWCAJlCavby7/oPTf5uC8FE+LynHZJEFgVJK8CkxE/pUJL2RuYW1lbmp1bWJmIG1hbmlmZXN0amV4Y2x1c2lvbnOBomVzdGFydBj4Zmxlbmd0aBkeBAAAAj5qdW1iAAAAJ2p1bWRjMmNsABEAEIAAAKoAOJtxA2MycGEuY2xhaW0udjIAAAACD2Nib3KlY2FsZ2ZzaGEyNTZpc2lnbmF0dXJleE1zZWxmI2p1bWJmPS9jMnBhL3VybjpjMnBhOjc3ZjE1NjZkLWMzYzMtNGVlYi1iMDZlLTZkNjZlOWU2ODEzZS9jMnBhLnNpZ25hdHVyZWppbnN0YW5jZUlEeCx4bXA6aWlkOjg2MmQzZDk3LWFhOWItNGNlZS05Mjg3LTRjZDU1MTMzZGQzNnJjcmVhdGVkX2Fzc2VydGlvbnODomN1cmx4LXNlbGYjanVtYmY9YzJwYS5hc3NlcnRpb25zL2MycGEuaW5ncmVkaWVudC52M2RoYXNoWCAoXj/rfvbdYG5PsPdC7HuuVaskI4egXIOEwAxe+HHhIqJjdXJseCpzZWxmI2p1bWJmPWMycGEuYXNzZXJ0aW9ucy9jMnBhLmFjdGlvbnMudjJkaGFzaFgghAz/gzU4zxFJPyb+YDKwp3tpy36EbdYub5YvljMWcduiY3VybHgpc2VsZiNqdW1iZj1jMnBhLmFzc2VydGlvbnMvYzJwYS5oYXNoLmRhdGFkaGFzaFggE6Xpm7Y6aJxNsk9RLYEatrkl5f81yeRxccWehIC2Bpd0Y2xhaW1fZ2VuZXJhdG9yX2luZm+jZG5hbWVvQW50aHJvcGljIEZpbGVzZ3ZlcnNpb25lMS4wLjBrc3BlY1ZlcnNpb25lMi40LjAAABA4anVtYgAAAChqdW1kYzJjcwARABCAAACqADibcQNjMnBhLnNpZ25hdHVyZQAAABAIY2JvctKEWQISogEmGCFZAgowggIGMIIBjaADAgECAhRA5aAK7sI50L64g/oGQgU9Z1UTADAKBggqhkjOPQQDAzBJMRcwFQYDVQQKEw5BbnRocm9waWMsIFBCQzEuMCwGA1UEAxMlQW50aHJvcGljIENvbnRlbnQgQ3JlZGVudGlhbHMgUm9vdCBDQTAeFw0yNjA4MDcxODQzNTZaFw0yODA4MDYxOTQzNTZaMEQxFzAVBgNVBAoTDkFudGhyb3BpYywgUEJDMSkwJwYDVQQDEyBBbnRocm9waWMgQ2xhdWRlIENvbnRlbnQgU2lnbmluZzBZMBMGByqGSM49AgEGCCqGSM49AwEHA0IABJh6CmvLUBgFFNU0vUKlOVtE6djd17L5SuwX0LemFisBM3dkd/3cyjxFA3Qo5S46fX0/ihY0VZ7mfb9KF703t5OjWDBWMA4GA1UdDwEB/wQEAwIHgDAVBgNVHSUEDjAMBgorBgEEAYPoXgIBMAwGA1UdEwEB/wQCMAAwHwYDVR0jBBgwFoAUzlHiBIFOZFsj+OPEz5o+nMHXXMIwCgYIKoZIzj0EAwMDZwAwZAIwMXMdFJ4BetLLVY7ORuE9noqbbAZOZn/aArXyTwFAZfKrPzxF2vPoJNf1+UCdg1XGAjBwX1zd9WGqYkqmL5SFqw1QySjr1zJfpJM9+1rdDwSPLMOPOjKuiXjoU/pUUeG9RwmhY3BhZFkNngAAAAAAAAAAAAAAAAAAAAAAAAAAAAAAAAAAAAAAAAAAAAAAAAAAAAAAAAAAAAAAAAAAAAAAAAAAAAAAAAAAAAAAAAAAAAAAAAAAAAAAAAAAAAAAAAAAAAAAAAAAAAAAAAAAAAAAAAAAAAAAAAAAAAAAAAAAAAAAAAAAAAAAAAAAAAAAAAAAAAAAAAAAAAAAAAAAAAAAAAAAAAAAAAAAAAAAAAAAAAAAAAAAAAAAAAAAAAAAAAAAAAAAAAAAAAAAAAAAAAAAAAAAAAAAAAAAAAAAAAAAAAAAAAAAAAAAAAAAAAAAAAAAAAAAAAAAAAAAAAAAAAAAAAAAAAAAAAAAAAAAAAAAAAAAAAAAAAAAAAAAAAAAAAAAAAAAAAAAAAAAAAAAAAAAAAAAAAAAAAAAAAAAAAAAAAAAAAAAAAAAAAAAAAAAAAAAAAAAAAAAAAAAAAAAAAAAAAAAAAAAAAAAAAAAAAAAAAAAAAAAAAAAAAAAAAAAAAAAAAAAAAAAAAAAAAAAAAAAAAAAAAAAAAAAAAAAAAAAAAAAAAAAAAAAAAAAAAAAAAAAAAAAAAAAAAAAAAAAAAAAAAAAAAAAAAAAAAAAAAAAAAAAAAAAAAAAAAAAAAAAAAAAAAAAAAAAAAAAAAAAAAAAAAAAAAAAAAAAAAAAAAAAAAAAAAAAAAAAAAAAAAAAAAAAAAAAAAAAAAAAAAAAAAAAAAAAAAAAAAAAAAAAAAAAAAAAAAAAAAAAAAAAAAAAAAAAAAAAAAAAAAAAAAAAAAAAAAAAAAAAAAAAAAAAAAAAAAAAAAAAAAAAAAAAAAAAAAAAAAAAAAAAAAAAAAAAAAAAAAAAAAAAAAAAAAAAAAAAAAAAAAAAAAAAAAAAAAAAAAAAAAAAAAAAAAAAAAAAAAAAAAAAAAAAAAAAAAAAAAAAAAAAAAAAAAAAAAAAAAAAAAAAAAAAAAAAAAAAAAAAAAAAAAAAAAAAAAAAAAAAAAAAAAAAAAAAAAAAAAAAAAAAAAAAAAAAAAAAAAAAAAAAAAAAAAAAAAAAAAAAAAAAAAAAAAAAAAAAAAAAAAAAAAAAAAAAAAAAAAAAAAAAAAAAAAAAAAAAAAAAAAAAAAAAAAAAAAAAAAAAAAAAAAAAAAAAAAAAAAAAAAAAAAAAAAAAAAAAAAAAAAAAAAAAAAAAAAAAAAAAAAAAAAAAAAAAAAAAAAAAAAAAAAAAAAAAAAAAAAAAAAAAAAAAAAAAAAAAAAAAAAAAAAAAAAAAAAAAAAAAAAAAAAAAAAAAAAAAAAAAAAAAAAAAAAAAAAAAAAAAAAAAAAAAAAAAAAAAAAAAAAAAAAAAAAAAAAAAAAAAAAAAAAAAAAAAAAAAAAAAAAAAAAAAAAAAAAAAAAAAAAAAAAAAAAAAAAAAAAAAAAAAAAAAAAAAAAAAAAAAAAAAAAAAAAAAAAAAAAAAAAAAAAAAAAAAAAAAAAAAAAAAAAAAAAAAAAAAAAAAAAAAAAAAAAAAAAAAAAAAAAAAAAAAAAAAAAAAAAAAAAAAAAAAAAAAAAAAAAAAAAAAAAAAAAAAAAAAAAAAAAAAAAAAAAAAAAAAAAAAAAAAAAAAAAAAAAAAAAAAAAAAAAAAAAAAAAAAAAAAAAAAAAAAAAAAAAAAAAAAAAAAAAAAAAAAAAAAAAAAAAAAAAAAAAAAAAAAAAAAAAAAAAAAAAAAAAAAAAAAAAAAAAAAAAAAAAAAAAAAAAAAAAAAAAAAAAAAAAAAAAAAAAAAAAAAAAAAAAAAAAAAAAAAAAAAAAAAAAAAAAAAAAAAAAAAAAAAAAAAAAAAAAAAAAAAAAAAAAAAAAAAAAAAAAAAAAAAAAAAAAAAAAAAAAAAAAAAAAAAAAAAAAAAAAAAAAAAAAAAAAAAAAAAAAAAAAAAAAAAAAAAAAAAAAAAAAAAAAAAAAAAAAAAAAAAAAAAAAAAAAAAAAAAAAAAAAAAAAAAAAAAAAAAAAAAAAAAAAAAAAAAAAAAAAAAAAAAAAAAAAAAAAAAAAAAAAAAAAAAAAAAAAAAAAAAAAAAAAAAAAAAAAAAAAAAAAAAAAAAAAAAAAAAAAAAAAAAAAAAAAAAAAAAAAAAAAAAAAAAAAAAAAAAAAAAAAAAAAAAAAAAAAAAAAAAAAAAAAAAAAAAAAAAAAAAAAAAAAAAAAAAAAAAAAAAAAAAAAAAAAAAAAAAAAAAAAAAAAAAAAAAAAAAAAAAAAAAAAAAAAAAAAAAAAAAAAAAAAAAAAAAAAAAAAAAAAAAAAAAAAAAAAAAAAAAAAAAAAAAAAAAAAAAAAAAAAAAAAAAAAAAAAAAAAAAAAAAAAAAAAAAAAAAAAAAAAAAAAAAAAAAAAAAAAAAAAAAAAAAAAAAAAAAAAAAAAAAAAAAAAAAAAAAAAAAAAAAAAAAAAAAAAAAAAAAAAAAAAAAAAAAAAAAAAAAAAAAAAAAAAAAAAAAAAAAAAAAAAAAAAAAAAAAAAAAAAAAAAAAAAAAAAAAAAAAAAAAAAAAAAAAAAAAAAAAAAAAAAAAAAAAAAAAAAAAAAAAAAAAAAAAAAAAAAAAAAAAAAAAAAAAAAAAAAAAAAAAAAAAAAAAAAAAAAAAAAAAAAAAAAAAAAAAAAAAAAAAAAAAAAAAAAAAAAAAAAAAAAAAAAAAAAAAAAAAAAAAAAAAAAAAAAAAAAAAAAAAAAAAAAAAAAAAAAAAAAAAAAAAAAAAAAAAAAAAAAAAAAAAAAAAAAAAAAAAAAAAAAAAAAAAAAAAAAAAAAAAAAAAAAAAAAAAAAAAAAAAAAAAAAAAAAAAAAAAAAAAAAAAAAAAAAAAAAAAAAAAAAAAAAAAAAAAAAAAAAAAAAAAAAAAAAAAAAAAAAAAAAAAAAAAAAAAAAAAAAAAAAAAAAAAAAAAAAAAAAAAAAAAAAAAAAAAAAAAAAAAAAAAAAAAAAAAAAAAAAAAAAAAAAAAAAAAAAAAAAAAAAAAAAAAAAAAAAAAAAAAAAAAAAAAAAAAAAAAAAAAAAAAAAAAAAAAAAAAAAAAAAAAAAAAAAAAAAAAAAAAAAAAAAAAAAAAAAAAAAAAAAAAAAAAAAAAAAAAAAAAAAAAAAAAAAAAAAAAAAAAAAAAAAAAAAAAAAAAAAAAAAAAAAAAAAAAAAAAAAAAAAAAAAAAAAAAAAAAAAAAAAAAAAAAAAAAAAAAAAAAAAAAAAAAAAAAAAAAAAAAAAAAAAAAAAAAAAAAAAAAAAAAAAAAAAAAAAAAAAAAAAAAAAAAAAAAAAAAAAAAAAAAAAAAAAAAAAAAAAAAAAAAAAAAAAAAAAAAAAAAAAAAAAAAAAAAAAAAAAAAAAAAAAAAAAAAAAAAAAAAAAAAAAAAAAAAAAAAAAAAAAAAAAAAAAAAAAAAAAAAAAAAAAAAAAAAAAAAAAAAAAAAAAAAAAAAAAAAAAAAAAAAAAAAAAAAAAAAAAAAAAAAAAAAAAAAAAAAAAAAAAAAAAAAAAAAAAAAAAAAAAAAAAAAAAAAAAAAAAAAAAAAAAAAAAAAAAAAAAAAAAAAAAAAAAAAAAAAAAAAAAAAAAAAAAAAAAAAAAAAAAAAAAAAAAAAAAAAAAAAAAAAAAAAAAAAAAAAAAAAAAAAAAAAAAAAAAAAAAAAAAAAAAAAAAAAAAAAAAAAAAAAAAAAAAAAAAAAAAAAAAAAAAAAAAAAAAAAAAAAAAAAAAAAAAAAAAAAAAAAAAAAAAAAAAAAAAAAAAAAAAAAAAAAAAAAAAAAAAAAAAAAAAAAAAAAAAAAAAAAAAAAAAAAAAAAAAAAAAAAAAAAAAAAAAAAAAAAAAAAAAAAAAAAAAAAAAAAAAAAAAAAAAAAAAAAAAAAAAAAAAAAAAAAAAAAAAAAAAAAAAAAAAAAAAAAAAAAAAAAAAAAAAAAAAAAAAAAAAAAAAAAAAAAAAAAAAAAAAAAAAAAAAAAAAAAAAAAAAAAAAAAAAAAAAAAAAAAAAAAAAAAAAAAAAAAAAAAAAAAAAAAAAAAAAAAAAAAAAAAAAAAAAAAAAAAAAAAAAAAAAAAAAAAAAAAAAAAAAAAAAAAAAAAAAAAAAAAAAAAAAAAAAAAAAAAAAAAAAAAAAAAAAAAAAAAAAAAAAAAAAAAAAAAAAAAAAAAAAAAAAAAAAAAAAAAAAAAAAAAAAAAAAAAAAAAAAAAAAAAAAAAAAAAAAAAAAAAAAAAAAAAAAAAAAAAAAAAAAAAAAAAAAAAAAAAAAAAAAAAAAAAAAAAAAAAAAAAAAAAAAAAAAAAAAAAAAAAAAAAAAAAAAAAAAAAAAAAAAAAAAAAAAAAAAAAAAAAAAAAAAAAAAAAAAAAAAAAAAAAAAAAAAAAAAAAAAAAAAAAAAAAAAAAAAAAAAAAAAAAAAAAAAAAAAAAAAAAAAAAAAAAAAAAAAAAAAAAAAAAAAAAAAAAAAAAAAAAAAAAAAAAAAAAAAAAAAAAAAAAAAAAAAAAAAAAAAAAAAAAAAAAAAAAAAAAAAAAAAAAAAAAAAAAAAAAAAAAAAAAAAAAAAAAAAAAAAAAAAAAAAAAAAAAAAAAAAAAAAAAAAAAAAAAAAAAAAAAAAAAAAAAAAAAAAAAAAAAAAAAAAAAAAAAAAAAAAAAAAAAAAAAAAAAAAAAAAAAAAAAAAAAAAAAAAAAAAAAAAAAAAAAAAAAAPZYQCPP13ww7wz8z/3/BNi7riaDZs8wqVOqj59f6TfDB0zZAlxVHCEL4XKge65X4ABldPkKHF9r1XW2Un3o3LhvQK0=</c2pa:manifest></metadata>
  <!-- Generator: Adobe Illustrator 30.8.1, SVG Export Plug-In . SVG Version: 2.1.4 Build 1)  -->
  <defs>
    <style>
      .st0 {
        fill: #6464a9;
        fill-rule: evenodd;
      }
    </style>
  </defs>
  <path class="st0" d="M107.5,372.6c6.8,0,12.8,1.6,18,4.8,5.2,3.2,9.2,7.8,12,13.8,2.8,6,4.2,13,4.2,21.1v5.2c0,8-1.4,15.1-4.2,21.1-2.8,6-6.8,10.6-11.9,13.7-5.1,3.2-11.1,4.7-17.9,4.7s-12.6-1.6-17.8-4.8c-5.2-3.2-9.2-7.7-12-13.6-2.9-5.9-4.3-12.7-4.4-20.4v-5.9c0-7.9,1.4-14.9,4.3-20.9,2.8-6.1,6.8-10.7,12-13.9,5.2-3.2,11.1-4.8,17.8-4.8ZM475.6,372.6c9,0,16.2,2.4,21.7,7.3,5.4,4.9,8.6,11.6,9.5,20.2h-11.2c-1-6.5-3.1-11.3-6.3-14.2-3.2-2.9-7.8-4.4-13.6-4.4s-12.7,2.6-16.8,7.7c-4.1,5.1-6.1,12.4-6.1,21.8v7.9c0,8.9,1.9,16,5.8,21.3,3.8,5.3,9.2,7.9,16.1,7.9s11-1.4,14.3-4.1c3.3-2.7,5.5-7.5,6.6-14.2h11.2c-1,8.7-4.4,15.4-9.9,20.1-5.6,4.7-13,7.1-22.2,7.1s-18-3.5-24.1-10.4c-6-7-9.1-16.3-9.1-27.9v-7.9c0-7.6,1.4-14.3,4.2-20.1,2.8-5.8,6.8-10.2,12-13.3,5.2-3.1,11.1-4.7,17.9-4.7ZM372.8,393.7c7.3,0,12.9,1.8,17.1,5.3,4.1,3.5,6.3,8.4,6.4,14.5v28.1c0,5.6.7,10.1,2.2,13.4v.9h-11.3c-.6-1.2-1.1-3.3-1.5-6.4-5,5-11,7.6-17.9,7.6s-11.3-1.7-15.3-5.1c-4-3.4-6-7.7-6-12.9s2.5-11.3,7.5-14.8c5-3.5,12-5.3,21-5.3h10.5v-4.8c0-3.6-1.1-6.5-3.4-8.7-2.3-2.2-5.6-3.2-10-3.2s-7.1.9-9.7,2.8c-2.6,1.9-3.9,4.2-3.9,6.8h-10.8c0-3,1.1-6,3.3-8.8,2.2-2.8,5.3-5.1,9.1-6.7,3.8-1.7,8-2.5,12.6-2.5ZM575.1,393.7c8.6,0,15.5,2.9,20.8,8.6,5.3,5.7,7.9,13.4,7.9,22.9v.7c0,5.9-1.2,11.3-3.5,16-2.4,4.7-5.7,8.4-10.1,11-4.4,2.6-9.4,3.9-15.1,3.9-8.5,0-15.5-2.9-20.8-8.6-5.3-5.7-7.9-13.4-7.9-22.8v-.7c0-6,1.2-11.3,3.6-16.1,2.4-4.8,5.8-8.5,10.1-11,4.3-2.6,9.3-3.9,14.8-3.9ZM1055.6,393.7c8.6,0,15.5,2.9,20.8,8.6,5.3,5.7,7.9,13.4,7.9,22.9v.7c0,5.9-1.2,11.3-3.5,16-2.3,4.7-5.7,8.4-10.1,11-4.4,2.6-9.4,3.9-15.1,3.9-8.5,0-15.5-2.9-20.8-8.6-5.3-5.7-7.9-13.4-7.9-22.8v-.7c0-6,1.2-11.3,3.6-16.1,2.4-4.8,5.8-8.5,10.1-11,4.3-2.6,9.3-3.9,14.8-3.9ZM628,394.9v39.4c0,9.2,3.9,13.9,11.6,13.9s13.7-3,16.4-8.9v-44.4h10.8v61h-10.2l-.2-6c-4.2,4.8-10.3,7.2-18.5,7.2s-11.8-1.9-15.3-5.7c-3.5-3.8-5.3-9.4-5.3-16.8v-39.7h10.8ZM964,380.1v14.8h11.8v8.1h-11.8v37.8c0,2.4.5,4.3,1.6,5.5,1,1.2,2.8,1.8,5.4,1.8s2.9-.2,5.1-.7v8.5c-2.8.8-5.6,1.1-8.3,1.1-4.8,0-8.4-1.4-10.9-4.2-2.4-2.8-3.7-6.8-3.7-12v-37.8h-11.5v-8.1h11.5v-14.8h10.8ZM733.8,369.3v86.6h-9.9l-.5-6.5c-4.3,5.1-10.3,7.7-18,7.7s-13.2-2.9-17.8-8.7c-4.6-5.8-6.9-13.3-6.9-22.7v-.8c0-9.4,2.3-16.9,6.9-22.6,4.6-5.7,10.6-8.5,18-8.5s13.2,2.4,17.5,7.3v-31.8h10.8ZM908.9,393.7c7.3,0,12.9,1.8,17.1,5.3,4.1,3.5,6.2,8.4,6.4,14.5v28.1c0,5.6.7,10.1,2.2,13.4v.9h-11.3c-.6-1.2-1.1-3.3-1.5-6.4-5,5-11,7.6-17.9,7.6s-11.3-1.7-15.3-5.1c-4-3.4-6-7.7-6-12.9s2.5-11.3,7.5-14.8c5-3.5,12-5.3,21-5.3h10.5v-4.8c0-3.6-1.1-6.5-3.4-8.7-2.3-2.2-5.6-3.2-10-3.2s-7.1.9-9.7,2.8c-2.6,1.9-3.9,4.2-3.9,6.8h-10.8c0-3,1.1-6,3.3-8.8,2.2-2.8,5.3-5.1,9.1-6.7,3.8-1.7,8-2.5,12.6-2.5ZM301.9,369.3v86.6h-10.8v-86.6h10.8ZM330.9,394.9v61h-10.8v-61h10.8ZM1205.5,393.7c13.8,0,20.8,7.1,21.1,21.3v40.9h-10.8v-40.2c0-4.4-1-7.6-3.1-9.8-2.1-2.2-5.5-3.2-10.4-3.2s-7.3,1.2-10,3.5c-2.6,2.3-4.2,5.4-4.6,9.3v40.5h-10.8v-40c0-8.9-4.5-13.3-13.4-13.3s-11.9,2.9-14.5,8.7v44.5h-10.8v-61h10.2l.3,6.8c4.6-5.3,10.8-7.9,18.7-7.9s14.8,3.3,18,9.8c2.1-2.9,4.8-5.3,8.2-7.1,3.4-1.8,7.3-2.7,11.9-2.7ZM1123.6,393.7c2.1,0,3.7.3,4.8.8v9.7c-1.6-.3-3.4-.4-5.3-.4-7.1,0-11.9,2.9-14.4,8.7v43.3h-10.8v-61h10.5l.2,7c3.5-5.4,8.5-8.2,15-8.2ZM272.9,394.9v61h-10.8v-61h10.8ZM532.1,369.3v86.6h-10.8v-86.6h10.8ZM223.9,393.7c13.8,0,20.8,7.1,21.1,21.3v40.9h-10.8v-40.2c0-4.4-1-7.6-3.1-9.8-2.1-2.2-5.5-3.2-10.4-3.2s-7.3,1.2-10,3.5c-2.6,2.3-4.2,5.4-4.6,9.3v40.5h-10.8v-40c0-8.9-4.5-13.3-13.5-13.3s-11.9,2.9-14.5,8.7v44.5h-10.8v-61h10.2l.3,6.8c4.6-5.3,10.8-7.9,18.7-7.9s14.8,3.3,18,9.8c2.1-2.9,4.8-5.3,8.2-7.1,3.4-1.8,7.3-2.7,11.9-2.7ZM813.1,373.8c9.3,0,16.5,2.3,21.8,6.9,5.3,4.6,7.9,10.7,7.9,18.2s-2.6,14.1-7.7,18.4c-5.1,4.3-12.5,6.5-22.1,6.5h-20v32.1h-11.2v-82.1h31.3ZM867.1,369.3v86.6h-10.8v-86.6h10.8ZM1014.4,368.1c2.5,0,4.9.3,7.4,1l-.6,8.5c-1.8-.3-3.8-.5-5.8-.5-3.5,0-6.2,1-8.1,3-1.9,2-2.9,4.8-2.9,8.5v6.4h13.4v8.1h-13.4v52.9h-10.8v-52.9h-10v-8.1h10v-6.3c0-6.5,1.8-11.6,5.4-15.2,3.6-3.6,8.7-5.4,15.3-5.4ZM575.1,402.3c-5.3,0-9.6,2-12.9,6.1-3.3,4.1-4.9,10-4.9,17.6s1.6,12.2,4.9,16.3c3.2,4.1,7.6,6.1,13,6.1s9.8-2.1,13-6.2c3.2-4.2,4.8-10,4.8-17.4s-1.6-12.1-4.9-16.3c-3.3-4.2-7.6-6.2-13.1-6.2ZM1055.6,402.3c-5.3,0-9.6,2-12.9,6.1-3.3,4.1-4.9,10-4.9,17.6s1.6,12.2,4.9,16.3c3.2,4.1,7.6,6.1,13,6.1s9.8-2.1,13-6.2c3.2-4.2,4.8-10,4.8-17.4s-1.6-12.1-4.9-16.3c-3.3-4.2-7.6-6.2-13.1-6.2ZM708.2,402.6c-5.3,0-9.4,2-12.3,5.9-3,3.9-4.4,9.8-4.4,17.5s1.5,12.3,4.4,16.2c2.9,3.9,7,5.9,12.2,5.9s11.8-3,15-8.9v-28c-3.2-5.7-8.2-8.6-14.9-8.6ZM921.6,426.3h-8.4c-13.2,0-19.8,3.7-19.8,11.2s1.1,5.8,3.4,7.7c2.3,1.8,5.1,2.8,8.7,2.8s6.6-.8,9.6-2.5c3-1.7,5.2-3.9,6.6-6.6v-12.5ZM385.4,426.3h-8.4c-13.2,0-19.8,3.7-19.8,11.2s1.1,5.8,3.4,7.7c2.3,1.8,5.1,2.8,8.7,2.8s6.6-.8,9.6-2.5c3-1.7,5.2-3.9,6.6-6.6v-12.5ZM107.5,381.9c-7.1,0-12.6,2.6-16.7,7.8-4.1,5.2-6.1,12.4-6.3,21.7v6c0,9.4,2,16.8,6.1,22.2,4.1,5.4,9.7,8.1,16.9,8.1s12.8-2.5,16.8-7.6c4-5.1,6-12.4,6.1-21.9v-6.1c0-9.7-2-17.2-6.1-22.4-4-5.2-9.7-7.8-16.9-7.8ZM813.7,382.7h-20.7v32.2h20.1c6,0,10.6-1.4,13.7-4.1,3.2-2.7,4.8-6.7,4.8-11.8s-1.6-8.8-4.8-11.7c-3.2-2.9-7.6-4.5-13.1-4.6ZM1258.5,368.1c3.4,0,6.7.8,9.6,2.5,3,1.7,5.3,4,7,6.9,1.7,2.9,2.5,6.1,2.5,9.5s-.8,6.5-2.4,9.4c-1.6,2.9-3.9,5.3-6.9,7-3,1.8-6.2,2.7-9.8,2.7s-6.8-.9-9.8-2.6c-3-1.8-5.3-4.1-6.9-7-1.6-2.9-2.5-6.1-2.5-9.4s.8-6.6,2.5-9.5c1.7-2.9,4-5.2,7-6.9,3-1.7,6.2-2.5,9.6-2.5ZM1258.5,371.1c-2.9,0-5.6.7-8,2.1-2.5,1.4-4.4,3.3-5.9,5.8-1.4,2.5-2.1,5.2-2.1,8s.7,5.6,2.2,8.1c1.4,2.5,3.4,4.4,5.9,5.8,2.5,1.4,5.1,2.1,8,2.1s5.6-.7,8.1-2.2c2.5-1.4,4.4-3.4,5.8-5.8,1.4-2.5,2.1-5.1,2.1-8.1s-.7-5.6-2.1-8c-1.4-2.5-3.4-4.4-5.8-5.8-2.5-1.4-5.2-2.1-8.1-2.1ZM1258.1,376h1.3c2.1.2,3.8.7,5.1,1.7,1.5,1.1,2.3,2.7,2.3,4.8s-1.1,3.7-3.4,4.8c2.2.8,3.3,2.6,3.3,5.2v2.4c0,1,.2,1.8.5,2.3v.4h-3.9v-.4c-.3-.6-.4-1.6-.4-2.8s0-2.5,0-2.8c-.3-1.6-1.5-2.5-3.5-2.5h-4.7v8.6h-3.8v-21.6h7.4ZM1258.2,379.2h-3.7v6.5h4.2c1.3,0,2.3-.3,3.1-.9.8-.6,1.2-1.3,1.2-2.2s-.4-2.1-1.1-2.6c-.7-.5-1.9-.8-3.7-.8ZM267.6,372.6c2.1,0,3.7.6,4.8,1.7,1.1,1.2,1.6,2.6,1.6,4.3s-.5,3.1-1.6,4.2c-1.1,1.1-2.7,1.7-4.8,1.7s-3.7-.6-4.7-1.7c-1.1-1.1-1.6-2.5-1.6-4.2s.5-3.1,1.6-4.3c1.1-1.2,2.6-1.7,4.7-1.7ZM325.6,372.6c2.1,0,3.7.6,4.8,1.7,1.1,1.2,1.6,2.6,1.6,4.3s-.5,3.1-1.6,4.2c-1.1,1.1-2.7,1.7-4.8,1.7s-3.7-.6-4.7-1.7c-1.1-1.1-1.6-2.5-1.6-4.2s.5-3.1,1.6-4.3c1.1-1.2,2.6-1.7,4.7-1.7Z"/>
  <path class="st0" d="M673.2,90.9c-30,0-55.1,17.5-65.2,45.5q-4.5,12.4,7.2,18c28.6,13.8,48.6,36.6,65.9,62.3,7.2,10.7,14.2,21.5,22.4,31.4,13.3,15.9,28.3,29.9,48.4,37.5,39.7,14.9,81.5-10.7,82.6-51.2.6-22.5-9.1-40.3-28.9-51.7-19.7-11.4-39.9-10.7-59.7.3-2.4,1.3-4.6,2.9-7.1,4-6.9,2.9-15.1.2-18.6-5.9-3.7-6.5-2.3-14.5,3.7-19,3.3-2.5,6.9-4.6,10.6-6.6,7.2-3.9,7.3-4,5.4-12.1-7.4-31.3-34.3-52.6-66.7-52.6ZM518.3,237.4c.7,17.3,10.5,34.5,30.2,45.3,20.8,11.3,41.4,9.6,61.3-2.9,1.6-1,3-2.2,4.6-3.2,7-4.4,15.6-3.1,20.3,3,4.8,6.3,4.1,14.7-2.2,20.1-11.7,9.9-25.4,15.8-40.5,18.6-54.9,10-106.4-34.4-103.7-89.4,2.1-44.5,36.6-79.7,81.5-83.1,4-.3,5.6-1.7,6.6-5.7,9.5-40.8,34.5-67.6,75.9-76.4,41-8.8,75,5.1,100.7,38,8.4,10.8,14,23.2,16.4,36.6,1,5.6,3.3,7.4,9,7.5,41.7.5,76.8,29.9,84.7,70.5,9.7,49.9-26.4,97.7-77.4,102.8-29.9,2.9-55.5-7.3-78.4-25.4-20.1-15.8-35.3-35.8-48.9-57.1-10.8-16.9-22.8-32.9-39.3-44.8-7.7-5.5-16.2-10.7-25.1-13.7-37.3-12.5-75.5,15.3-75.5,59.4Z"/>
  
</svg>